{
	"asset":{
		"generator":"Khronos glTF Blender I/O v4.1.63",
		"version":"2.0"
	},
	"scene":0,
	"scenes":[
		{
			"name":"Scene",
			"nodes":[
				0
			]
		}
	],
	"nodes":[
		{
			"mesh":0,
			"name":"Giraffe_OBJ",
			"rotation":[
				0.7071068286895752,
				0,
				0,
				0.7071068286895752
			]
		}
	],
	"materials":[
		{
			"doubleSided":true,
			"name":"lambert3SG",
			"pbrMetallicRoughness":{
				"baseColorFactor":[
					0.800000011920929,
					0.800000011920929,
					0.800000011920929,
					1
				],
				"metallicFactor":0,
				"roughnessFactor":1
			}
		}
	],
	"meshes":[
		{
			"name":"Giraffe_OBJ",
			"primitives":[
				{
					"attributes":{
						"POSITION":0,
						"NORMAL":1,
						"TEXCOORD_0":2
					},
					"indices":3,
					"material":0
				}
			]
		}
	],
	"accessors":[
		{
			"bufferView":0,
			"componentType":5126,
			"count":4445,
			"max":[
				2.9190080165863037,
				6.939905166625977,
				0
			],
			"min":[
				-2.9190080165863037,
				-6.939905166625977,
				-27.406509399414062
			],
			"type":"VEC3"
		},
		{
			"bufferView":1,
			"componentType":5126,
			"count":4445,
			"type":"VEC3"
		},
		{
			"bufferView":2,
			"componentType":5126,
			"count":4445,
			"type":"VEC2"
		},
		{
			"bufferView":3,
			"componentType":5123,
			"count":22800,
			"type":"SCALAR"
		}
	],
	"bufferViews":[
		{
			"buffer":0,
			"byteLength":53340,
			"byteOffset":0,
			"target":34962
		},
		{
			"buffer":0,
			"byteLength":53340,
			"byteOffset":53340,
			"target":34962
		},
		{
			"buffer":0,
			"byteLength":35560,
			"byteOffset":106680,
			"target":34962
		},
		{
			"buffer":0,
			"byteLength":45600,
			"byteOffset":142240,
			"target":34963
		}
	],
	"buffers":[
		{
			"byteLength":187840,
			"uri":"girafee.bin"
		}
	]
}
