{
	"asset":{
		"generator":"Khronos glTF Blender I/O v4.1.63",
		"version":"2.0"
	},
	"scene":0,
	"scenes":[
		{
			"name":"Scene",
			"nodes":[
				0,
				1,
				2,
				3,
				4,
				5,
				6
			]
		}
	],
	"nodes":[
		{
			"mesh":0,
			"name":"tiger_001",
			"translation":[
				5.231925964355469,
				0,
				0
			]
		},
		{
			"mesh":1,
			"name":"horse_001",
			"translation":[
				-0.13146919012069702,
				0,
				0
			]
		},
		{
			"mesh":2,
			"name":"dog_001",
			"translation":[
				-2.8623011112213135,
				0,
				0
			]
		},
		{
			"mesh":3,
			"name":"deer_001",
			"translation":[
				3.36924147605896,
				0,
				0
			]
		},
		{
			"mesh":4,
			"name":"kitty_001",
			"translation":[
				0.9334832429885864,
				0,
				0
			]
		},
		{
			"mesh":5,
			"name":"pinguin_001",
			"translation":[
				-1.5679020881652832,
				0,
				0
			]
		},
		{
			"mesh":6,
			"name":"chicken_001",
			"translation":[
				1.901915431022644,
				0,
				0
			]
		}
	],
	"materials":[
		{
			"doubleSided":true,
			"name":"material",
			"pbrMetallicRoughness":{
				"metallicFactor":0,
				"roughnessFactor":0.5527864098548889
			}
		}
	],
	"meshes":[
		{
			"name":"Tiger.002",
			"primitives":[
				{
					"attributes":{
						"POSITION":0,
						"NORMAL":1,
						"TEXCOORD_0":2
					},
					"indices":3,
					"material":0
				}
			]
		},
		{
			"name":"Mesh.041",
			"primitives":[
				{
					"attributes":{
						"POSITION":4,
						"NORMAL":5,
						"TEXCOORD_0":6
					},
					"indices":7,
					"material":0
				}
			]
		},
		{
			"name":"Mesh.042",
			"primitives":[
				{
					"attributes":{
						"POSITION":8,
						"NORMAL":9,
						"TEXCOORD_0":10
					},
					"indices":11,
					"material":0
				}
			]
		},
		{
			"name":"Mesh.045",
			"primitives":[
				{
					"attributes":{
						"POSITION":12,
						"NORMAL":13,
						"TEXCOORD_0":14
					},
					"indices":15,
					"material":0
				}
			]
		},
		{
			"name":"Mesh.106",
			"primitives":[
				{
					"attributes":{
						"POSITION":16,
						"NORMAL":17,
						"TEXCOORD_0":18
					},
					"indices":19,
					"material":0
				}
			]
		},
		{
			"name":"Mesh.070",
			"primitives":[
				{
					"attributes":{
						"POSITION":20,
						"NORMAL":21,
						"TEXCOORD_0":22
					},
					"indices":23,
					"material":0
				}
			]
		},
		{
			"name":"Mesh.110",
			"primitives":[
				{
					"attributes":{
						"POSITION":24,
						"NORMAL":25,
						"TEXCOORD_0":26
					},
					"indices":27,
					"material":0
				}
			]
		}
	],
	"accessors":[
		{
			"bufferView":0,
			"componentType":5126,
			"count":3925,
			"max":[
				0.3643326461315155,
				1.2818189859390259,
				1.4846138954162598
			],
			"min":[
				-0.3643326759338379,
				-0.0008431802853010595,
				-1.4299674034118652
			],
			"type":"VEC3"
		},
		{
			"bufferView":1,
			"componentType":5126,
			"count":3925,
			"type":"VEC3"
		},
		{
			"bufferView":2,
			"componentType":5126,
			"count":3925,
			"type":"VEC2"
		},
		{
			"bufferView":3,
			"componentType":5123,
			"count":7614,
			"type":"SCALAR"
		},
		{
			"bufferView":4,
			"componentType":5126,
			"count":1268,
			"max":[
				0.27499133348464966,
				1.8556705713272095,
				1.1658120155334473
			],
			"min":[
				-0.27499133348464966,
				-0.000378093944163993,
				-1.492601752281189
			],
			"type":"VEC3"
		},
		{
			"bufferView":5,
			"componentType":5126,
			"count":1268,
			"type":"VEC3"
		},
		{
			"bufferView":6,
			"componentType":5126,
			"count":1268,
			"type":"VEC2"
		},
		{
			"bufferView":7,
			"componentType":5123,
			"count":5196,
			"type":"SCALAR"
		},
		{
			"bufferView":8,
			"componentType":5126,
			"count":1103,
			"max":[
				0.15986450016498566,
				0.786821186542511,
				0.4974181652069092
			],
			"min":[
				-0.15986450016498566,
				-5.086604505777359e-05,
				-0.6749634146690369
			],
			"type":"VEC3"
		},
		{
			"bufferView":9,
			"componentType":5126,
			"count":1103,
			"type":"VEC3"
		},
		{
			"bufferView":10,
			"componentType":5126,
			"count":1103,
			"type":"VEC2"
		},
		{
			"bufferView":11,
			"componentType":5123,
			"count":3030,
			"type":"SCALAR"
		},
		{
			"bufferView":12,
			"componentType":5126,
			"count":3364,
			"max":[
				0.5310455560684204,
				1.9672410488128662,
				0.7087445259094238
			],
			"min":[
				-0.5310467481613159,
				-1.341104507446289e-07,
				-0.9709491729736328
			],
			"type":"VEC3"
		},
		{
			"bufferView":13,
			"componentType":5126,
			"count":3364,
			"type":"VEC3"
		},
		{
			"bufferView":14,
			"componentType":5126,
			"count":3364,
			"type":"VEC2"
		},
		{
			"bufferView":15,
			"componentType":5123,
			"count":5742,
			"type":"SCALAR"
		},
		{
			"bufferView":16,
			"componentType":5126,
			"count":794,
			"max":[
				0.04935548081994057,
				0.2149195373058319,
				0.2835550010204315
			],
			"min":[
				-0.04935545474290848,
				-0.0008720457553863525,
				-0.16013354063034058
			],
			"type":"VEC3"
		},
		{
			"bufferView":17,
			"componentType":5126,
			"count":794,
			"type":"VEC3"
		},
		{
			"bufferView":18,
			"componentType":5126,
			"count":794,
			"type":"VEC2"
		},
		{
			"bufferView":19,
			"componentType":5123,
			"count":3948,
			"type":"SCALAR"
		},
		{
			"bufferView":20,
			"componentType":5126,
			"count":701,
			"max":[
				0.29030221700668335,
				1.2836320400238037,
				0.5133519768714905
			],
			"min":[
				-0.29030221700668335,
				0,
				-0.38903480768203735
			],
			"type":"VEC3"
		},
		{
			"bufferView":21,
			"componentType":5126,
			"count":701,
			"type":"VEC3"
		},
		{
			"bufferView":22,
			"componentType":5126,
			"count":701,
			"type":"VEC2"
		},
		{
			"bufferView":23,
			"componentType":5123,
			"count":2454,
			"type":"SCALAR"
		},
		{
			"bufferView":24,
			"componentType":5126,
			"count":726,
			"max":[
				0.1337740123271942,
				0.5199486613273621,
				0.30702871084213257
			],
			"min":[
				-0.1337740123271942,
				-3.3696487662382424e-06,
				-0.18159084022045135
			],
			"type":"VEC3"
		},
		{
			"bufferView":25,
			"componentType":5126,
			"count":726,
			"type":"VEC3"
		},
		{
			"bufferView":26,
			"componentType":5126,
			"count":726,
			"type":"VEC2"
		},
		{
			"bufferView":27,
			"componentType":5123,
			"count":2928,
			"type":"SCALAR"
		}
	],
	"bufferViews":[
		{
			"buffer":0,
			"byteLength":47100,
			"byteOffset":0,
			"target":34962
		},
		{
			"buffer":0,
			"byteLength":47100,
			"byteOffset":47100,
			"target":34962
		},
		{
			"buffer":0,
			"byteLength":31400,
			"byteOffset":94200,
			"target":34962
		},
		{
			"buffer":0,
			"byteLength":15228,
			"byteOffset":125600,
			"target":34963
		},
		{
			"buffer":0,
			"byteLength":15216,
			"byteOffset":140828,
			"target":34962
		},
		{
			"buffer":0,
			"byteLength":15216,
			"byteOffset":156044,
			"target":34962
		},
		{
			"buffer":0,
			"byteLength":10144,
			"byteOffset":171260,
			"target":34962
		},
		{
			"buffer":0,
			"byteLength":10392,
			"byteOffset":181404,
			"target":34963
		},
		{
			"buffer":0,
			"byteLength":13236,
			"byteOffset":191796,
			"target":34962
		},
		{
			"buffer":0,
			"byteLength":13236,
			"byteOffset":205032,
			"target":34962
		},
		{
			"buffer":0,
			"byteLength":8824,
			"byteOffset":218268,
			"target":34962
		},
		{
			"buffer":0,
			"byteLength":6060,
			"byteOffset":227092,
			"target":34963
		},
		{
			"buffer":0,
			"byteLength":40368,
			"byteOffset":233152,
			"target":34962
		},
		{
			"buffer":0,
			"byteLength":40368,
			"byteOffset":273520,
			"target":34962
		},
		{
			"buffer":0,
			"byteLength":26912,
			"byteOffset":313888,
			"target":34962
		},
		{
			"buffer":0,
			"byteLength":11484,
			"byteOffset":340800,
			"target":34963
		},
		{
			"buffer":0,
			"byteLength":9528,
			"byteOffset":352284,
			"target":34962
		},
		{
			"buffer":0,
			"byteLength":9528,
			"byteOffset":361812,
			"target":34962
		},
		{
			"buffer":0,
			"byteLength":6352,
			"byteOffset":371340,
			"target":34962
		},
		{
			"buffer":0,
			"byteLength":7896,
			"byteOffset":377692,
			"target":34963
		},
		{
			"buffer":0,
			"byteLength":8412,
			"byteOffset":385588,
			"target":34962
		},
		{
			"buffer":0,
			"byteLength":8412,
			"byteOffset":394000,
			"target":34962
		},
		{
			"buffer":0,
			"byteLength":5608,
			"byteOffset":402412,
			"target":34962
		},
		{
			"buffer":0,
			"byteLength":4908,
			"byteOffset":408020,
			"target":34963
		},
		{
			"buffer":0,
			"byteLength":8712,
			"byteOffset":412928,
			"target":34962
		},
		{
			"buffer":0,
			"byteLength":8712,
			"byteOffset":421640,
			"target":34962
		},
		{
			"buffer":0,
			"byteLength":5808,
			"byteOffset":430352,
			"target":34962
		},
		{
			"buffer":0,
			"byteLength":5856,
			"byteOffset":436160,
			"target":34963
		}
	],
	"buffers":[
		{
			"byteLength":442016,
			"uri":"Animals.bin"
		}
	]
}
